<svg xmlns="http://www.w3.org/2000/svg" width="1200" height="520" viewBox="0 0 1200 520" role="img" aria-labelledby="title desc">
  <title id="title">LP Video Analysis Skill</title>
  <desc id="desc">General video understanding for agent workflows.</desc>
  <rect width="1200" height="520" fill="#fafafa"/>
  <rect x="62" y="56" width="1076" height="408" rx="28" fill="#ffffff" stroke="#d9d9d9" stroke-width="2"/>
  <g transform="translate(118 116)">
    <text x="0" y="54" fill="#0a0a0a" font-family="Inter, ui-sans-serif, system-ui, -apple-system, BlinkMacSystemFont, Segoe UI, sans-serif" font-size="58" font-weight="760">LP Video Analysis Skill</text>
    <text x="0" y="112" fill="#575757" font-family="Inter, ui-sans-serif, system-ui, -apple-system, BlinkMacSystemFont, Segoe UI, sans-serif" font-size="28">General video understanding for agent workflows</text>
    <text x="0" y="162" fill="#737373" font-family="Inter, ui-sans-serif, system-ui, -apple-system, BlinkMacSystemFont, Segoe UI, sans-serif" font-size="22">Analyze · Summarize · Index · Search · Report · Optional clips</text>
    <rect x="0" y="224" width="266" height="58" rx="10" fill="#0a0a0a"/>
    <text x="26" y="261" fill="#ffffff" font-family="Inter, ui-sans-serif, system-ui, -apple-system, BlinkMacSystemFont, Segoe UI, sans-serif" font-size="22" font-weight="680">Install from GitHub</text>
  </g>
  <g transform="translate(724 106)">
    <rect x="0" y="0" width="286" height="306" rx="22" fill="#f5f5f5" stroke="#d9d9d9"/>
    <rect x="28" y="32" width="230" height="130" rx="14" fill="#111111"/>
    <path d="M126 75 L126 119 L166 97 Z" fill="#ffffff"/>
    <rect x="28" y="190" width="188" height="14" rx="7" fill="#0a0a0a"/>
    <rect x="28" y="220" width="230" height="12" rx="6" fill="#8a8a8a"/>
    <rect x="28" y="248" width="168" height="12" rx="6" fill="#c2c2c2"/>
  </g>
  <g transform="translate(648 172)">
    <rect x="0" y="0" width="188" height="96" rx="16" fill="#ffffff" stroke="#d9d9d9"/>
    <text x="22" y="40" fill="#0a0a0a" font-family="Inter, ui-sans-serif, system-ui" font-size="18" font-weight="720">video_analysis.json</text>
    <text x="22" y="68" fill="#737373" font-family="Inter, ui-sans-serif, system-ui" font-size="15">segments + evidence</text>
  </g>
  <g transform="translate(940 204)">
    <rect x="0" y="0" width="162" height="86" rx="16" fill="#ffffff" stroke="#d9d9d9"/>
    <text x="20" y="36" fill="#0a0a0a" font-family="Inter, ui-sans-serif, system-ui" font-size="18" font-weight="720">Video RAG</text>
    <text x="20" y="62" fill="#737373" font-family="Inter, ui-sans-serif, system-ui" font-size="15">JSONL index</text>
  </g>
</svg>
